{
  "asset": {
    "version": "2.0",
    "generator": "Sketchup glTF Exporter v1.2.6 by Centaur"
  },
  "scene": 0,
  "scenes": [
    {
      "nodes": [
        0
      ]
    }
  ],
  "samplers": [
    {
    }
  ],
  "nodes": [
    {
      "name": "root",
      "children": [
        1
      ]
    },
    {
      "children": [
        2
      ]
    },
    {
      "name": "H棟",
      "children": [
        3,
        4,
        9,
        16,
        17,
        18
      ]
    },
    {
      "mesh": 0
    },
    {
      "children": [
        5,
        6,
        7,
        8
      ]
    },
    {
      "mesh": 1
    },
    {
      "mesh": 2
    },
    {
      "mesh": 3
    },
    {
      "mesh": 4
    },
    {
      "children": [
        10,
        14,
        15
      ]
    },
    {
      "children": [
        11,
        13
      ]
    },
    {
      "children": [
        12
      ]
    },
    {
      "mesh": 5
    },
    {
      "mesh": 6
    },
    {
      "mesh": 7
    },
    {
      "mesh": 8
    },
    {
      "mesh": 9
    },
    {
      "mesh": 10
    },
    {
      "mesh": 11
    }
  ],
  "materials": [
    {
      "pbrMetallicRoughness": {
        "baseColorFactor": [
          1.0,
          1.0,
          1.0,
          1.0
        ],
        "metallicFactor": 0.1,
        "roughnessFactor": 0.9
      },
      "name": "顏色 M00",
      "doubleSided": true
    },
    {
      "pbrMetallicRoughness": {
        "baseColorTexture": {
          "index": 0
        },
        "metallicFactor": 0.1,
        "roughnessFactor": 0.9
      },
      "name": "材料20"
    },
    {
      "pbrMetallicRoughness": {
        "baseColorFactor": [
          0.5732,
          0.5732,
          0.5732,
          1.0
        ],
        "metallicFactor": 0.1,
        "roughnessFactor": 0.9
      },
      "name": "顏色 M02"
    }
  ],
  "images": [
    {
      "bufferView": 0,
      "mimeType": "image/jpeg"
    }
  ],
  "textures": [
    {
      "source": 0,
      "sampler": 0
    }
  ],
  "meshes": [
    {
      "primitives": [
        {
          "attributes": {
            "POSITION": 0,
            "NORMAL": 1
          },
          "indices": 5,
          "mode": 4,
          "material": 0
        }
      ]
    },
    {
      "primitives": [
        {
          "attributes": {
            "POSITION": 0,
            "NORMAL": 1
          },
          "indices": 6,
          "mode": 4,
          "material": 0
        },
        {
          "attributes": {
            "POSITION": 2,
            "NORMAL": 3,
            "TEXCOORD_0": 4
          },
          "indices": 7,
          "mode": 4,
          "material": 1
        }
      ]
    },
    {
      "primitives": [
        {
          "attributes": {
            "POSITION": 0,
            "NORMAL": 1
          },
          "indices": 8,
          "mode": 4,
          "material": 0
        },
        {
          "attributes": {
            "POSITION": 2,
            "NORMAL": 3,
            "TEXCOORD_0": 4
          },
          "indices": 9,
          "mode": 4,
          "material": 1
        }
      ]
    },
    {
      "primitives": [
        {
          "attributes": {
            "POSITION": 0,
            "NORMAL": 1
          },
          "indices": 10,
          "mode": 4,
          "material": 0
        },
        {
          "attributes": {
            "POSITION": 2,
            "NORMAL": 3,
            "TEXCOORD_0": 4
          },
          "indices": 11,
          "mode": 4,
          "material": 1
        }
      ]
    },
    {
      "primitives": [
        {
          "attributes": {
            "POSITION": 0,
            "NORMAL": 1
          },
          "indices": 12,
          "mode": 4,
          "material": 0
        },
        {
          "attributes": {
            "POSITION": 2,
            "NORMAL": 3,
            "TEXCOORD_0": 4
          },
          "indices": 13,
          "mode": 4,
          "material": 1
        }
      ]
    },
    {
      "primitives": [
        {
          "attributes": {
            "POSITION": 0,
            "NORMAL": 1
          },
          "indices": 14,
          "mode": 4,
          "material": 0
        }
      ]
    },
    {
      "primitives": [
        {
          "attributes": {
            "POSITION": 0,
            "NORMAL": 1
          },
          "indices": 15,
          "mode": 4,
          "material": 0
        }
      ]
    },
    {
      "primitives": [
        {
          "attributes": {
            "POSITION": 0,
            "NORMAL": 1
          },
          "indices": 16,
          "mode": 4,
          "material": 0
        }
      ]
    },
    {
      "primitives": [
        {
          "attributes": {
            "POSITION": 0,
            "NORMAL": 1
          },
          "indices": 17,
          "mode": 4,
          "material": 0
        }
      ]
    },
    {
      "primitives": [
        {
          "attributes": {
            "POSITION": 0,
            "NORMAL": 1
          },
          "indices": 18,
          "mode": 4,
          "material": 0
        }
      ]
    },
    {
      "primitives": [
        {
          "attributes": {
            "POSITION": 0,
            "NORMAL": 1
          },
          "indices": 19,
          "mode": 4,
          "material": 0
        }
      ]
    },
    {
      "primitives": [
        {
          "attributes": {
            "POSITION": 0,
            "NORMAL": 1
          },
          "indices": 20,
          "mode": 4,
          "material": 2
        }
      ]
    }
  ],
  "accessors": [
    {
      "bufferView": 1,
      "componentType": 5126,
      "count": 92648,
      "type": "VEC3",
      "min": [
        -16.865767765977804,
        -3.4309357600310916e-13,
        -9.813296945922323
      ],
      "max": [
        18.127589959681796,
        5.245499609291196,
        11.353659227413244
      ]
    },
    {
      "bufferView": 2,
      "componentType": 5126,
      "count": 92648,
      "type": "VEC3",
      "min": [
        -0.9292562536757037,
        -1.0,
        -0.9349352604079013
      ],
      "max": [
        0.9292562536730868,
        1.0,
        0.9349352604077426
      ]
    },
    {
      "bufferView": 3,
      "componentType": 5126,
      "count": 360,
      "type": "VEC3",
      "min": [
        -16.76994920136138,
        -4.0594420934564776e-14,
        -9.708612146895032
      ],
      "max": [
        17.864305188700033,
        2.480000077056864,
        10.90351459159876
      ]
    },
    {
      "bufferView": 4,
      "componentType": 5126,
      "count": 360,
      "type": "VEC3",
      "min": [
        -0.9292403681683441,
        -5.697636630045132e-08,
        -0.9349228835424622
      ],
      "max": [
        0.9292403681683441,
        5.6976367326886434e-08,
        0.9349228835422847
      ]
    },
    {
      "bufferView": 5,
      "componentType": 5126,
      "count": 360,
      "type": "VEC2",
      "min": [
        -631.955358907044,
        -96.63782490305022
      ],
      "max": [
        936.2204724409419,
        1.0000127754266772
      ]
    },
    {
      "bufferView": 6,
      "componentType": 5125,
      "count": 20652,
      "type": "SCALAR"
    },
    {
      "bufferView": 6,
      "componentType": 5125,
      "count": 21834,
      "type": "SCALAR",
      "byteOffset": 82608
    },
    {
      "bufferView": 7,
      "componentType": 5123,
      "count": 219,
      "type": "SCALAR"
    },
    {
      "bufferView": 6,
      "componentType": 5125,
      "count": 22236,
      "type": "SCALAR",
      "byteOffset": 169944
    },
    {
      "bufferView": 7,
      "componentType": 5123,
      "count": 255,
      "type": "SCALAR",
      "byteOffset": 438
    },
    {
      "bufferView": 6,
      "componentType": 5125,
      "count": 6066,
      "type": "SCALAR",
      "byteOffset": 258888
    },
    {
      "bufferView": 7,
      "componentType": 5123,
      "count": 48,
      "type": "SCALAR",
      "byteOffset": 948
    },
    {
      "bufferView": 6,
      "componentType": 5125,
      "count": 6078,
      "type": "SCALAR",
      "byteOffset": 283152
    },
    {
      "bufferView": 7,
      "componentType": 5123,
      "count": 48,
      "type": "SCALAR",
      "byteOffset": 1044
    },
    {
      "bufferView": 6,
      "componentType": 5125,
      "count": 20652,
      "type": "SCALAR",
      "byteOffset": 307464
    },
    {
      "bufferView": 6,
      "componentType": 5125,
      "count": 20652,
      "type": "SCALAR",
      "byteOffset": 390072
    },
    {
      "bufferView": 6,
      "componentType": 5125,
      "count": 4506,
      "type": "SCALAR",
      "byteOffset": 472680
    },
    {
      "bufferView": 6,
      "componentType": 5125,
      "count": 4506,
      "type": "SCALAR",
      "byteOffset": 490704
    },
    {
      "bufferView": 6,
      "componentType": 5125,
      "count": 20652,
      "type": "SCALAR",
      "byteOffset": 508728
    },
    {
      "bufferView": 6,
      "componentType": 5125,
      "count": 31464,
      "type": "SCALAR",
      "byteOffset": 591336
    },
    {
      "bufferView": 6,
      "componentType": 5125,
      "count": 36,
      "type": "SCALAR",
      "byteOffset": 717192
    }
  ],
  "bufferViews": [
    {
      "buffer": 0,
      "byteLength": 1388
    },
    {
      "buffer": 0,
      "byteOffset": 1392,
      "byteLength": 1111776,
      "target": 34962,
      "byteStride": 12
    },
    {
      "buffer": 0,
      "byteOffset": 1113168,
      "byteLength": 1111776,
      "target": 34962,
      "byteStride": 12
    },
    {
      "buffer": 0,
      "byteOffset": 2224944,
      "byteLength": 4320,
      "target": 34962,
      "byteStride": 12
    },
    {
      "buffer": 0,
      "byteOffset": 2229264,
      "byteLength": 4320,
      "target": 34962,
      "byteStride": 12
    },
    {
      "buffer": 0,
      "byteOffset": 2233584,
      "byteLength": 2880,
      "target": 34962,
      "byteStride": 8
    },
    {
      "buffer": 0,
      "byteOffset": 2236464,
      "byteLength": 717336,
      "target": 34963
    },
    {
      "buffer": 0,
      "byteOffset": 2953800,
      "byteLength": 1140,
      "target": 34963
    }
  ],
  "buffers": [
    {
      "uri": "data:application/octet-stream;base64,",
      "byteLength": 2954940
    }
  ]
}