{
  "asset": {
    "version": "2.0",
    "generator": "Sketchup glTF Exporter v1.2.6 by Centaur"
  },
  "scene": 0,
  "scenes": [
    {
      "nodes": [
        0
      ]
    }
  ],
  "samplers": [
    {
    }
  ],
  "nodes": [
    {
      "name": "root",
      "children": [
        1
      ]
    },
    {
      "children": [
        2
      ]
    },
    {
      "name": "J棟(修)",
      "children": [
        3
      ]
    },
    {
      "name": "元件#28",
      "children": [
        4
      ],
      "mesh": 1
    },
    {
      "name": "元件#11",
      "mesh": 0
    }
  ],
  "materials": [
    {
      "pbrMetallicRoughness": {
        "baseColorTexture": {
          "index": 0
        },
        "metallicFactor": 0.1,
        "roughnessFactor": 0.9
      },
      "name": "材料17"
    },
    {
      "pbrMetallicRoughness": {
        "baseColorFactor": [
          0.1275,
          0.3066,
          0.8513,
          0.5
        ],
        "metallicFactor": 0.1,
        "roughnessFactor": 0.9
      },
      "name": "鐵皮2",
      "alphaMode": "BLEND"
    },
    {
      "pbrMetallicRoughness": {
        "baseColorTexture": {
          "index": 1
        },
        "metallicFactor": 0.1,
        "roughnessFactor": 0.9
      },
      "name": "縐折的閃亮金屬"
    },
    {
      "pbrMetallicRoughness": {
        "baseColorTexture": {
          "index": 2
        },
        "metallicFactor": 0.1,
        "roughnessFactor": 0.9
      },
      "name": "木材單板 01"
    },
    {
      "pbrMetallicRoughness": {
        "baseColorTexture": {
          "index": 3
        },
        "metallicFactor": 0.1,
        "roughnessFactor": 0.9
      },
      "name": "定向木質纖維板"
    },
    {
      "pbrMetallicRoughness": {
        "baseColorTexture": {
          "index": 4
        },
        "metallicFactor": 0.1,
        "roughnessFactor": 0.9
      },
      "name": "花崗岩"
    }
  ],
  "images": [
    {
      "bufferView": 0,
      "mimeType": "image/jpeg"
    },
    {
      "bufferView": 1,
      "mimeType": "image/jpeg"
    },
    {
      "bufferView": 2,
      "mimeType": "image/jpeg"
    },
    {
      "bufferView": 3,
      "mimeType": "image/jpeg"
    },
    {
      "bufferView": 4,
      "mimeType": "image/jpeg"
    }
  ],
  "textures": [
    {
      "source": 0,
      "sampler": 0
    },
    {
      "source": 1,
      "sampler": 0
    },
    {
      "source": 2,
      "sampler": 0
    },
    {
      "source": 3,
      "sampler": 0
    },
    {
      "source": 4,
      "sampler": 0
    }
  ],
  "meshes": [
    {
      "primitives": [
        {
          "attributes": {
            "POSITION": 2,
            "NORMAL": 3,
            "TEXCOORD_0": 4
          },
          "indices": 5,
          "mode": 4,
          "material": 0
        },
        {
          "attributes": {
            "POSITION": 0,
            "NORMAL": 1
          },
          "indices": 6,
          "mode": 4,
          "material": 1
        },
        {
          "attributes": {
            "POSITION": 2,
            "NORMAL": 3,
            "TEXCOORD_0": 4
          },
          "indices": 7,
          "mode": 4,
          "material": 2
        }
      ]
    },
    {
      "primitives": [
        {
          "attributes": {
            "POSITION": 2,
            "NORMAL": 3,
            "TEXCOORD_0": 4
          },
          "indices": 8,
          "mode": 4,
          "material": 0
        },
        {
          "attributes": {
            "POSITION": 2,
            "NORMAL": 3,
            "TEXCOORD_0": 4
          },
          "indices": 9,
          "mode": 4,
          "material": 3
        },
        {
          "attributes": {
            "POSITION": 2,
            "NORMAL": 3,
            "TEXCOORD_0": 4
          },
          "indices": 10,
          "mode": 4,
          "material": 4
        },
        {
          "attributes": {
            "POSITION": 2,
            "NORMAL": 3,
            "TEXCOORD_0": 4
          },
          "indices": 11,
          "mode": 4,
          "material": 5
        }
      ]
    }
  ],
  "accessors": [
    {
      "bufferView": 5,
      "componentType": 5126,
      "count": 4,
      "type": "VEC3",
      "min": [
        10.953892619228892,
        1.4999999999999991,
        0.21191716581003167
      ],
      "max": [
        11.90171779476059,
        2.4399999999999995,
        0.5887824423058977
      ]
    },
    {
      "bufferView": 6,
      "componentType": 5126,
      "count": 4,
      "type": "VEC3",
      "min": [
        0.36947576127045606,
        -1.1741063133296789e-15,
        0.9292403681683319
      ],
      "max": [
        0.36947576127045606,
        -1.1741063133296789e-15,
        0.9292403681683319
      ]
    },
    {
      "bufferView": 7,
      "componentType": 5126,
      "count": 316,
      "type": "VEC3",
      "min": [
        -16.465235750034314,
        -1.5544113208441882e-14,
        -11.01125812879376
      ],
      "max": [
        16.481068887543543,
        7.983500794892039,
        11.051078847959898
      ]
    },
    {
      "bufferView": 8,
      "componentType": 5126,
      "count": 316,
      "type": "VEC3",
      "min": [
        -0.9292403681683348,
        -1.0,
        -0.929240368168332
      ],
      "max": [
        0.929240368168332,
        1.0,
        0.929240368168332
      ]
    },
    {
      "bufferView": 9,
      "componentType": 5126,
      "count": 316,
      "type": "VEC2",
      "min": [
        -1192.913385826775,
        -313.31105491700913
      ],
      "max": [
        1192.913385826775,
        307.571460736472
      ]
    },
    {
      "bufferView": 11,
      "componentType": 5123,
      "count": 42,
      "type": "SCALAR"
    },
    {
      "bufferView": 10,
      "componentType": 5121,
      "count": 6,
      "type": "SCALAR"
    },
    {
      "bufferView": 11,
      "componentType": 5123,
      "count": 48,
      "type": "SCALAR",
      "byteOffset": 84
    },
    {
      "bufferView": 11,
      "componentType": 5123,
      "count": 174,
      "type": "SCALAR",
      "byteOffset": 180
    },
    {
      "bufferView": 11,
      "componentType": 5123,
      "count": 42,
      "type": "SCALAR",
      "byteOffset": 528
    },
    {
      "bufferView": 11,
      "componentType": 5123,
      "count": 264,
      "type": "SCALAR",
      "byteOffset": 612
    },
    {
      "bufferView": 11,
      "componentType": 5123,
      "count": 12,
      "type": "SCALAR",
      "byteOffset": 1140
    }
  ],
  "bufferViews": [
    {
      "buffer": 0,
      "byteLength": 138275
    },
    {
      "buffer": 0,
      "byteOffset": 138275,
      "byteLength": 1596
    },
    {
      "buffer": 0,
      "byteOffset": 139871,
      "byteLength": 38298
    },
    {
      "buffer": 0,
      "byteOffset": 178169,
      "byteLength": 11470
    },
    {
      "buffer": 0,
      "byteOffset": 189639,
      "byteLength": 33729
    },
    {
      "buffer": 0,
      "byteOffset": 223368,
      "byteLength": 48,
      "target": 34962,
      "byteStride": 12
    },
    {
      "buffer": 0,
      "byteOffset": 223416,
      "byteLength": 48,
      "target": 34962,
      "byteStride": 12
    },
    {
      "buffer": 0,
      "byteOffset": 223464,
      "byteLength": 3792,
      "target": 34962,
      "byteStride": 12
    },
    {
      "buffer": 0,
      "byteOffset": 227256,
      "byteLength": 3792,
      "target": 34962,
      "byteStride": 12
    },
    {
      "buffer": 0,
      "byteOffset": 231048,
      "byteLength": 2528,
      "target": 34962,
      "byteStride": 8
    },
    {
      "buffer": 0,
      "byteOffset": 233576,
      "byteLength": 6,
      "target": 34963
    },
    {
      "buffer": 0,
      "byteOffset": 233582,
      "byteLength": 1164,
      "target": 34963
    }
  ],
  "buffers": [
    {
      "uri": "data:application/octet-stream;base64,",
      "byteLength": 234746
    }
  ]
}