{
  "asset": {
    "version": "2.0",
    "generator": "Sketchup glTF Exporter v1.2.6 by Centaur"
  },
  "scene": 0,
  "scenes": [
    {
      "nodes": [
        0
      ]
    }
  ],
  "samplers": [
    {
    }
  ],
  "nodes": [
    {
      "name": "root",
      "children": [
        1
      ]
    },
    {
      "children": [
        2
      ]
    },
    {
      "name": "K棟(修)",
      "children": [
        3
      ],
      "mesh": 1
    },
    {
      "name": "元件#12",
      "mesh": 0
    }
  ],
  "materials": [
    {
      "pbrMetallicRoughness": {
        "baseColorTexture": {
          "index": 0
        },
        "metallicFactor": 0.1,
        "roughnessFactor": 0.9
      },
      "name": "縐折的閃亮金屬"
    },
    {
      "pbrMetallicRoughness": {
        "baseColorTexture": {
          "index": 1
        },
        "metallicFactor": 0.1,
        "roughnessFactor": 0.9
      },
      "name": "材料17"
    },
    {
      "pbrMetallicRoughness": {
        "baseColorFactor": [
          0.1275,
          0.3066,
          0.8513,
          0.5
        ],
        "metallicFactor": 0.1,
        "roughnessFactor": 0.9
      },
      "name": "半透明藍色玻璃",
      "alphaMode": "BLEND"
    },
    {
      "pbrMetallicRoughness": {
        "baseColorFactor": [
          0.2176,
          0.2176,
          0.2176,
          1.0
        ],
        "metallicFactor": 0.1,
        "roughnessFactor": 0.9
      },
      "name": "default material",
      "doubleSided": true
    },
    {
      "pbrMetallicRoughness": {
        "baseColorTexture": {
          "index": 2
        },
        "metallicFactor": 0.1,
        "roughnessFactor": 0.9
      },
      "name": "定向木質纖維板"
    },
    {
      "pbrMetallicRoughness": {
        "baseColorTexture": {
          "index": 3
        },
        "metallicFactor": 0.1,
        "roughnessFactor": 0.9
      },
      "name": "木材單板 01"
    },
    {
      "pbrMetallicRoughness": {
        "baseColorTexture": {
          "index": 4
        },
        "metallicFactor": 0.1,
        "roughnessFactor": 0.9
      },
      "name": "花崗岩"
    }
  ],
  "images": [
    {
      "bufferView": 0,
      "mimeType": "image/jpeg"
    },
    {
      "bufferView": 1,
      "mimeType": "image/jpeg"
    },
    {
      "bufferView": 2,
      "mimeType": "image/jpeg"
    },
    {
      "bufferView": 3,
      "mimeType": "image/jpeg"
    },
    {
      "bufferView": 4,
      "mimeType": "image/jpeg"
    }
  ],
  "textures": [
    {
      "source": 0,
      "sampler": 0
    },
    {
      "source": 1,
      "sampler": 0
    },
    {
      "source": 2,
      "sampler": 0
    },
    {
      "source": 3,
      "sampler": 0
    },
    {
      "source": 4,
      "sampler": 0
    }
  ],
  "meshes": [
    {
      "primitives": [
        {
          "attributes": {
            "POSITION": 2,
            "NORMAL": 3,
            "TEXCOORD_0": 4
          },
          "indices": 5,
          "mode": 4,
          "material": 4
        },
        {
          "attributes": {
            "POSITION": 2,
            "NORMAL": 3,
            "TEXCOORD_0": 4
          },
          "indices": 6,
          "mode": 4,
          "material": 5
        },
        {
          "attributes": {
            "POSITION": 0,
            "NORMAL": 1
          },
          "indices": 7,
          "mode": 4,
          "material": 3
        }
      ]
    },
    {
      "primitives": [
        {
          "attributes": {
            "POSITION": 2,
            "NORMAL": 3,
            "TEXCOORD_0": 4
          },
          "indices": 8,
          "mode": 4,
          "material": 0
        },
        {
          "attributes": {
            "POSITION": 2,
            "NORMAL": 3,
            "TEXCOORD_0": 4
          },
          "indices": 9,
          "mode": 4,
          "material": 1
        },
        {
          "attributes": {
            "POSITION": 0,
            "NORMAL": 1
          },
          "indices": 10,
          "mode": 4,
          "material": 2
        },
        {
          "attributes": {
            "POSITION": 0,
            "NORMAL": 1
          },
          "indices": 11,
          "mode": 4,
          "material": 3
        },
        {
          "attributes": {
            "POSITION": 2,
            "NORMAL": 3,
            "TEXCOORD_0": 4
          },
          "indices": 12,
          "mode": 4,
          "material": 6
        }
      ]
    }
  ],
  "accessors": [
    {
      "bufferView": 5,
      "componentType": 5126,
      "count": 132,
      "type": "VEC3",
      "min": [
        -12.709735675249272,
        -0.004119047691142416,
        -10.233612288624744
      ],
      "max": [
        12.988507785699749,
        6.960000000000012,
        9.744030903781976
      ]
    },
    {
      "bufferView": 6,
      "componentType": 5126,
      "count": 132,
      "type": "VEC3",
      "min": [
        -0.929240368168324,
        -0.9832345525990526,
        -0.36947576127047593
      ],
      "max": [
        0.929240368168324,
        1.0,
        0.9292403681683242
      ]
    },
    {
      "bufferView": 7,
      "componentType": 5126,
      "count": 487,
      "type": "VEC3",
      "min": [
        -13.005557282688894,
        -0.004119047691142416,
        -10.344455017005885
      ],
      "max": [
        12.988507785699749,
        6.960000000000037,
        9.744030903781976
      ]
    },
    {
      "bufferView": 8,
      "componentType": 5126,
      "count": 487,
      "type": "VEC3",
      "min": [
        -0.9292403681683677,
        -1.0,
        -0.9292403681683774
      ],
      "max": [
        0.9292403681684119,
        1.0,
        0.929240368168324
      ]
    },
    {
      "bufferView": 9,
      "componentType": 5126,
      "count": 487,
      "type": "VEC2",
      "min": [
        -92.89410763788604,
        -76.42782152230973
      ],
      "max": [
        232.28346456694248,
        16.372594814998358
      ]
    },
    {
      "bufferView": 11,
      "componentType": 5123,
      "count": 264,
      "type": "SCALAR"
    },
    {
      "bufferView": 11,
      "componentType": 5123,
      "count": 39,
      "type": "SCALAR",
      "byteOffset": 528
    },
    {
      "bufferView": 10,
      "componentType": 5121,
      "count": 9,
      "type": "SCALAR"
    },
    {
      "bufferView": 11,
      "componentType": 5123,
      "count": 195,
      "type": "SCALAR",
      "byteOffset": 606
    },
    {
      "bufferView": 11,
      "componentType": 5123,
      "count": 345,
      "type": "SCALAR",
      "byteOffset": 996
    },
    {
      "bufferView": 10,
      "componentType": 5121,
      "count": 6,
      "type": "SCALAR",
      "byteOffset": 9
    },
    {
      "bufferView": 10,
      "componentType": 5121,
      "count": 258,
      "type": "SCALAR",
      "byteOffset": 15
    },
    {
      "bufferView": 11,
      "componentType": 5123,
      "count": 66,
      "type": "SCALAR",
      "byteOffset": 1686
    }
  ],
  "bufferViews": [
    {
      "buffer": 0,
      "byteLength": 1596
    },
    {
      "buffer": 0,
      "byteOffset": 1596,
      "byteLength": 138275
    },
    {
      "buffer": 0,
      "byteOffset": 139871,
      "byteLength": 11470
    },
    {
      "buffer": 0,
      "byteOffset": 151341,
      "byteLength": 38298
    },
    {
      "buffer": 0,
      "byteOffset": 189639,
      "byteLength": 33729
    },
    {
      "buffer": 0,
      "byteOffset": 223368,
      "byteLength": 1584,
      "target": 34962,
      "byteStride": 12
    },
    {
      "buffer": 0,
      "byteOffset": 224952,
      "byteLength": 1584,
      "target": 34962,
      "byteStride": 12
    },
    {
      "buffer": 0,
      "byteOffset": 226536,
      "byteLength": 5844,
      "target": 34962,
      "byteStride": 12
    },
    {
      "buffer": 0,
      "byteOffset": 232380,
      "byteLength": 5844,
      "target": 34962,
      "byteStride": 12
    },
    {
      "buffer": 0,
      "byteOffset": 238224,
      "byteLength": 3896,
      "target": 34962,
      "byteStride": 8
    },
    {
      "buffer": 0,
      "byteOffset": 242120,
      "byteLength": 273,
      "target": 34963
    },
    {
      "buffer": 0,
      "byteOffset": 242394,
      "byteLength": 1818,
      "target": 34963
    }
  ],
  "buffers": [
    {
      "uri": "data:application/octet-stream;base64,",
      "byteLength": 244212
    }
  ]
}